/* XPM */
static char * print_xpm[] = {
"48 24 144 2",
"  	c None",
". 	c #000000",
"+ 	c #F7F7F6",
"@ 	c #B3B3B3",
"# 	c #303030",
"$ 	c #FAFAF9",
"% 	c #F8F7F6",
"& 	c #F5F4F3",
"* 	c #F2F2F0",
"= 	c #F1F0EE",
"- 	c #C5C5C3",
"; 	c #464646",
"> 	c #C6C6C6",
", 	c #F7F6F5",
"' 	c #F4F4F2",
") 	c #F1F1EF",
"! 	c #EFEEEC",
"~ 	c #ECEBE9",
"{ 	c #EAE9E6",
"] 	c #E7E6E2",
"^ 	c #E4E3DF",
"/ 	c #A5A29E",
"( 	c #2D2D2D",
"_ 	c #F6F5F4",
": 	c #F3F3F1",
"< 	c #EEEDEB",
"[ 	c #EBEAE8",
"} 	c #E9E8E5",
"| 	c #E6E5E1",
"1 	c #E3E2DE",
"2 	c #CBC9C7",
"3 	c #060606",
"4 	c #868686",
"5 	c #F0EFED",
"6 	c #EDECEA",
"7 	c #EAE9E7",
"8 	c #E8E7E3",
"9 	c #E5E4E0",
"0 	c #E3E1DD",
"a 	c #DDDCD9",
"b 	c #585858",
"c 	c #CECECE",
"d 	c #B6B6B6",
"e 	c #9A9A98",
"f 	c #7D7D7B",
"g 	c #E2E0DC",
"h 	c #DFDED9",
"i 	c #BCBCBB",
"j 	c #CBCBCB",
"k 	c #E9E9E9",
"l 	c #E5E5E5",
"m 	c #E2E2E2",
"n 	c #B5B3B2",
"o 	c #5F5E5C",
"p 	c #848381",
"q 	c #B5B3B0",
"r 	c #DEDDD8",
"s 	c #CDCBC6",
"t 	c #403F3F",
"u 	c #393939",
"v 	c #484848",
"w 	c #8D8D8D",
"x 	c #B7B7B7",
"y 	c #F8F8F8",
"z 	c #F6F6F6",
"A 	c #F4F4F4",
"B 	c #ECECEC",
"C 	c #EEEEEE",
"D 	c #929290",
"E 	c #646260",
"F 	c #504F4C",
"G 	c #646360",
"H 	c #444443",
"I 	c #676767",
"J 	c #494949",
"K 	c #131313",
"L 	c #ACACAC",
"M 	c #AAAAAA",
"N 	c #888888",
"O 	c #BBBBBB",
"P 	c #E1E1E1",
"Q 	c #F3F3F3",
"R 	c #EFEFEF",
"S 	c #EAEAEA",
"T 	c #DEDEDE",
"U 	c #D5D5D5",
"V 	c #414141",
"W 	c #272727",
"X 	c #191919",
"Y 	c #3A3A3A",
"Z 	c #969696",
"` 	c #B1B1B1",
" .	c #AFAFAF",
"..	c #A9A9A9",
"+.	c #D2D2D2",
"@.	c #D9D9D9",
"#.	c #252525",
"$.	c #3C3C3C",
"%.	c #1A1A1A",
"&.	c #434343",
"*.	c #808080",
"=.	c #B4B4B4",
"-.	c #B2B2B2",
";.	c #A2A2A2",
">.	c #A0A0A0",
",.	c #777777",
"'.	c #C3C3C3",
").	c #212121",
"!.	c #2F2F2F",
"~.	c #353535",
"{.	c #3E3E3E",
"].	c #202020",
"^.	c #1C1C1C",
"/.	c #404040",
"(.	c #828282",
"_.	c #8F8F8F",
":.	c #8C8C8C",
"<.	c #A7A7A7",
"[.	c #A5A5A5",
"}.	c #959595",
"|.	c #7B7B7B",
"1.	c #171717",
"2.	c #0E0E0E",
"3.	c #3F3F3F",
"4.	c #5B5B5B",
"5.	c #4B4B4B",
"6.	c #282828",
"7.	c #606060",
"8.	c #7C7C7C",
"9.	c #5A5A5A",
"0.	c #373737",
"a.	c #2A2A2A",
"b.	c #505050",
"c.	c #555555",
"d.	c #2C2C2C",
"e.	c #242424",
"f.	c #4E4E4E",
"g.	c #343434",
"h.	c #646464",
"i.	c #717171",
"j.	c #6F6F6F",
"k.	c #313131",
"l.	c #4A4A4A",
"m.	c #727272",
"                                                                                                ",
"                                                                                                ",
"                                                                                                ",
"                                                . .                                             ",
"                                              . + @ # . .                                       ",
"                                            . $ % & * = - ; . . .                               ",
"                                          . > , ' ) ! ~ { ] ^ / .                               ",
"                                          ( _ : = < [ } | 1 2 .                                 ",
"                                      . 3 4 * 5 6 7 8 9 0 a b                                   ",
"                                  . . c d e f ~ { ] ^ g h i . .                                 ",
"                              . . j k l k m n o o p q r s t u v . .                             ",
"                            . w x m y z A B k C l D E F G H I J K .                             ",
"                            . L M N O P Q l B R m S T k U V W X Y .                             ",
"                            . Z `  ...N ..+.@.R k T B j #.u $.%.V .                             ",
"                            . &.*.x =.-.M ;.>.,.+.+.'.).!.~.{.].^..                             ",
"                            . /.#.{.(._.:...<.[.}.|.1.2.Y $.3.Y ~..                             ",
"                            . 4.4.5.; 6.7.4 ;.>.8.9.0.Y $.1.u $.. .                             ",
"                              . . a.b.c.d.; e.f.$.|.u ^.( ~.g..                                 ",
"                                  . . . V 4.c.h.i.j.].k.0.. .                                   ",
"                                        . . . v l.m.Y {..                                       ",
"                                              . . . . .                                         ",
"                                                                                                ",
"                                                                                                ",
"                                                                                                "};
